# xmcd
# 
# Track frame offsets:
#     150
#     11750
#     22936
#     34239
#     42984
#     54857
#     63368
#     73763
#     84617
#     96720
#     106696
#     119742
#     139240
#     152823
#     163043
#     175510
#     187815
#     201140
#     210370
#     221561
#     236469
#     246029
#     255281
#     264207
#     275197
#     284812
#     298246
#     309519
#     315987
#     325064
# 
# Disc length: 4544
# 
# Revision: 5
# Processed by: cddbd v1.5.2PL0 Copyright (c) Steve Scherf et al.
# Submitted via: fre:ac v1.0.27
# 
DISCID=b411be1e
DTITLE=Various Artist - Dreamboats and Petticoats 4 CD2
DYEAR=2010
DGENRE=Rock and Roll
TTITLE0=One Night - Presley, Elvis
TTITLE1=Hey! Little Girl - Shannon, Del
TTITLE2=Way Down Yonder In New Orleans - Cannon, Freddy
TTITLE3=Come On, Let's Go - Steele, Tommy
TTITLE4=Put Your Head On My Shoulder - Anka, Paul
TTITLE5=How About That - Faith, Adam
TTITLE6=Hello, Mary Lou (Goodbye Heart) - Nelson, Ricky
TTITLE7=I Don't Know Why - Kane, Eden
TTITLE8=Magic Moments - Como Perry
TTITLE9=The Story Of My Life - Holliday, Michael
TTITLE10=Stand By Me - King, Ben E.
TTITLE11=El Paso - Robbins, Marty
TTITLE12=Big Bad John - Dean, Jimmy
TTITLE13=Kisses Sweeter Than Wine - Vaughan, Frankie
TTITLE14=My Prayer - Platters, The
TTITLE15=All Alone Am I - Lee, Brenda
TTITLE16=The Day The Rains Came - Morgan, Jane
TTITLE17=A Little Bitty Tear - Ives, Burl
TTITLE18=The Wedding - Rogers, Julie
TTITLE19=Mr. Wonderful - Lee, Peggy
TTITLE20=What A Wonderful World - Cooke, Sam
TTITLE21=I Remember You - Ifield, Frank
TTITLE22=Warpaint - Brook Brothers, The
TTITLE23=When My Little Girl Is Smiling - Justice, Jimmy
TTITLE24=On The Rebound - Cramer, Floyd
TTITLE25=Apache - Shadows, The
TTITLE26=Runaround Sue - Dreamboats Cast **
TTITLE27=Poetry In Motion - Dreamboats Cast **
TTITLE28=Palisades Park - Dreamboats Cast **
TTITLE29=Did Your Mama Tell You (How To Rock and Roll) - Dreamboats Cast **
EXTD=UMTV 5331309 2010
EXTT0=
EXTT1=
EXTT2=
EXTT3=
EXTT4=
EXTT5=
EXTT6=
EXTT7=
EXTT8=
EXTT9=
EXTT10=
EXTT11=
EXTT12=
EXTT13=
EXTT14=
EXTT15=
EXTT16=
EXTT17=
EXTT18=
EXTT19=
EXTT20=
EXTT21=
EXTT22=
EXTT23=
EXTT24=
EXTT25=
EXTT26=
EXTT27=
EXTT28=
EXTT29=
PLAYORDER=
